/videos/750684e9-7f47-0eff-6dfb-eb8bed4d211b/hls1/main/0.ts

{"Protocol":0,"Id":"750684e97f470eff6dfbeb8bed4d211b","Path":"/data/Movies/The.Blacklist.S09E01.1080p.HEVC.x265-MeGusta.mkv","EncoderPath":null,"EncoderProtocol":null,"Type":0,"Container":"mkv,webm","Size":464370145,"Name":"The.Blacklist.S09E01.1080p.HEVC.x265-MeGusta","IsRemote":false,"ETag":"d7a067490ac30381fea58c7bc401739f","RunTimeTicks":25773120000,"ReadAtNativeFramerate":false,"IgnoreDts":false,"IgnoreIndex":false,"GenPtsInput":false,"SupportsTranscoding":true,"SupportsDirectStream":true,"SupportsDirectPlay":true,"IsInfiniteStream":false,"RequiresOpening":false,"OpenToken":null,"RequiresClosing":false,"LiveStreamId":null,"BufferMs":null,"RequiresLooping":false,"SupportsProbing":true,"VideoType":0,"IsoType":null,"Video3DFormat":null,"MediaStreams":[{"Codec":"hevc","CodecTag":null,"Language":"eng","ColorRange":null,"ColorSpace":"bt709","ColorTransfer":"bt709","ColorPrimaries":"bt709","Comment":null,"TimeBase":"1/1000","CodecTimeBase":"1001/24000","Title":null,"VideoRange":"SDR","localizedUndefined":null,"localizedDefault":null,"localizedForced":null,"DisplayTitle":"1080p HEVC SDR","NalLengthSize":null,"IsInterlaced":false,"IsAVC":null,"ChannelLayout":null,"BitRate":1441409,"BitDepth":null,"RefFrames":1,"PacketLength":null,"Channels":null,"SampleRate":null,"IsDefault":true,"IsForced":false,"Height":1080,"Width":1920,"AverageFrameRate":23.976025,"RealFrameRate":23.976025,"Profile":"Main 10","Type":1,"AspectRatio":"16:9","Index":0,"Score":null,"IsExternal":false,"DeliveryMethod":null,"DeliveryUrl":null,"IsExternalUrl":null,"IsTextSubtitleStream":false,"SupportsExternalStream":false,"Path":null,"PixelFormat":"yuv420p10le","Level":120,"IsAnamorphic":null},{"Codec":"eac3","CodecTag":null,"Language":"eng","ColorRange":null,"ColorSpace":null,"ColorTransfer":null,"ColorPrimaries":null,"Comment":null,"TimeBase":"1/1000","CodecTimeBase":"1/48000","Title":null,"VideoRange":null,"localizedUndefined":null,"localizedDefault":null,"localizedForced":null,"DisplayTitle":"English - Dolby Digital\u002B - 6 ch - Default","NalLengthSize":null,"IsInterlaced":false,"IsAVC":null,"ChannelLayout":null,"BitRate":640000,"BitDepth":null,"RefFrames":null,"PacketLength":null,"Channels":6,"SampleRate":48000,"IsDefault":true,"IsForced":false,"Height":null,"Width":null,"AverageFrameRate":null,"RealFrameRate":null,"Profile":null,"Type":0,"AspectRatio":null,"Index":1,"Score":null,"IsExternal":false,"DeliveryMethod":null,"DeliveryUrl":null,"IsExternalUrl":null,"IsTextSubtitleStream":false,"SupportsExternalStream":false,"Path":null,"PixelFormat":null,"Level":0,"IsAnamorphic":null},{"Codec":"ass","CodecTag":null,"Language":"eng","ColorRange":null,"ColorSpace":null,"ColorTransfer":null,"ColorPrimaries":null,"Comment":null,"TimeBase":"1/1000","CodecTimeBase":"0/1","Title":"English","VideoRange":null,"localizedUndefined":"Undefined","localizedDefault":"Default","localizedForced":"Forced","DisplayTitle":"English - Default","NalLengthSize":null,"IsInterlaced":false,"IsAVC":null,"ChannelLayout":null,"BitRate":null,"BitDepth":null,"RefFrames":null,"PacketLength":null,"Channels":null,"SampleRate":null,"IsDefault":true,"IsForced":false,"Height":null,"Width":null,"AverageFrameRate":null,"RealFrameRate":null,"Profile":null,"Type":2,"AspectRatio":null,"Index":2,"Score":null,"IsExternal":false,"DeliveryMethod":null,"DeliveryUrl":null,"IsExternalUrl":null,"IsTextSubtitleStream":true,"SupportsExternalStream":true,"Path":null,"PixelFormat":null,"Level":0,"IsAnamorphic":null}],"MediaAttachments":[],"Formats":[],"Bitrate":2081409,"Timestamp":null,"RequiredHttpHeaders":{},"TranscodingUrl":null,"TranscodingSubProtocol":null,"TranscodingContainer":null,"AnalyzeDurationMs":null,"DefaultAudioStreamIndex":null,"DefaultSubtitleStreamIndex":null}

/usr/lib/jellyfin-ffmpeg/ffmpeg -f matroska,webm -i file:"/data/Movies/The.Blacklist.S09E01.1080p.HEVC.x265-MeGusta.mkv" -map_metadata -1 -map_chapters -1 -threads 0 -map 0:0 -map 0:1 -map -0:s -codec:v:0 libx264 -pix_fmt yuv420p -preset veryfast -crf 23 -maxrate 6005870 -bufsize 12011740 -profile:v:0 high -level 41 -x264opts:0 subme=0:me_range=4:rc_lookahead=10:me=dia:no_chroma_me:8x8dct=0:partitions=none  -force_key_frames:0 "expr:gte(t,0+n_forced*3)" -vf "scale=trunc(min(max(iw\,ih*dar)\,min(1920\,1080*dar))/2)*2:trunc(min(max(iw/dar\,ih)\,min(1920/dar\,1080))/2)*2" -start_at_zero -vsync -1 -codec:a:0 aac -ac 2 -ab 384000 -af "volume=2" -copyts -avoid_negative_ts disabled -max_muxing_queue_size 2048 -f hls -max_delay 5000000 -hls_time 3 -hls_segment_type mpegts -start_number 0 -hls_segment_filename "/config/data/transcodes/c040dda2168a39e6e1c20b9a186b95c2%d.ts" -hls_playlist_type vod -hls_list_size 0 -y "/config/data/transcodes/c040dda2168a39e6e1c20b9a186b95c2.m3u8"


ffmpeg version 4.3.1-Jellyfin Copyright (c) 2000-2020 the FFmpeg developers
  built with gcc 9 (Ubuntu 9.3.0-17ubuntu1~20.04)
  configuration: --prefix=/usr/lib/jellyfin-ffmpeg --target-os=linux --extra-version=Jellyfin --disable-doc --disable-ffplay --disable-shared --disable-libxcb --disable-sdl2 --disable-xlib --enable-gpl --enable-version3 --enable-static --enable-libfontconfig --enable-fontconfig --enable-gmp --enable-gnutls --enable-libass --enable-libbluray --enable-libdrm --enable-libfreetype --enable-libfribidi --enable-libmp3lame --enable-libopus --enable-libtheora --enable-libvorbis --enable-libdav1d --enable-libwebp --enable-libvpx --enable-libx264 --enable-libx265 --enable-libzvbi --enable-libzimg --toolchain=hardened --enable-cross-compile --enable-omx --enable-omx-rpi --enable-mmal --arch=armhf --cross-prefix=/usr/bin/arm-linux-gnueabihf-
  libavutil      56. 51.100 / 56. 51.100
  libavcodec     58. 91.100 / 58. 91.100
  libavformat    58. 45.100 / 58. 45.100
  libavdevice    58. 10.100 / 58. 10.100
  libavfilter     7. 85.100 /  7. 85.100
  libswscale      5.  7.100 /  5.  7.100
  libswresample   3.  7.100 /  3.  7.100
  libpostproc    55.  7.100 / 55.  7.100
Guessed Channel Layout for Input Stream #0.1 : 5.1
Input #0, matroska,webm, from 'file:/data/Movies/The.Blacklist.S09E01.1080p.HEVC.x265-MeGusta.mkv':
  Metadata:
    ENCODER         : Lavf58.76.100
  Duration: 00:42:57.31, start: 0.000000, bitrate: 1441 kb/s
    Stream #0:0(eng): Video: hevc (Main 10), yuv420p10le(tv, bt709, progressive), 1920x1080 [SAR 1:1 DAR 16:9], 23.98 fps, 23.98 tbr, 1k tbn, 23.98 tbc (default)
    Metadata:
      BPS             : 8987660
      NUMBER_OF_FRAMES: 61793
      NUMBER_OF_BYTES : 2895468237
      _STATISTICS_WRITING_APP: mkvmerge v61.0.0 ('So') 64-bit
      _STATISTICS_WRITING_DATE_UTC: 2021-10-22 04:58:13
      _STATISTICS_TAGS: BPS DURATION NUMBER_OF_FRAMES NUMBER_OF_BYTES
      ENCODER         : Lavc58.134.100 libx265
      DURATION        : 00:42:57.283000000
    Stream #0:1(eng): Audio: eac3, 48000 Hz, 5.1, fltp (default)
    Metadata:
      BPS             : 640000
      NUMBER_OF_FRAMES: 80541
      NUMBER_OF_BYTES : 206184960
      _STATISTICS_WRITING_APP: mkvmerge v61.0.0 ('So') 64-bit
      _STATISTICS_WRITING_DATE_UTC: 2021-10-22 04:58:13
      _STATISTICS_TAGS: BPS DURATION NUMBER_OF_FRAMES NUMBER_OF_BYTES
      DURATION        : 00:42:57.312000000
    Stream #0:2(eng): Subtitle: ass (default)
    Metadata:
      title           : English
      BPS             : 89
      NUMBER_OF_FRAMES: 842
      NUMBER_OF_BYTES : 28363
      _STATISTICS_WRITING_APP: mkvmerge v61.0.0 ('So') 64-bit
      _STATISTICS_WRITING_DATE_UTC: 2021-10-22 04:58:13
      _STATISTICS_TAGS: BPS DURATION NUMBER_OF_FRAMES NUMBER_OF_BYTES
      ENCODER         : Lavc58.134.100 ssa
      DURATION        : 00:42:18.570000000
Stream mapping:
  Stream #0:0 -> #0:0 (hevc (native) -> h264 (libx264))
  Stream #0:1 -> #0:1 (eac3 (native) -> aac (native))
Press [q] to stop, [?] for help
[libx264 @ 0x380b3a0] using SAR=1/1
[libx264 @ 0x380b3a0] using cpu capabilities: ARMv6 NEON
[libx264 @ 0x380b3a0] profile Main, level 4.1
[libx264 @ 0x380b3a0] 264 - core 155 r2917 0a84d98 - H.264/MPEG-4 AVC codec - Copyleft 2003-2018 - http://www.videolan.org/x264.html - options: cabac=1 ref=1 deblock=1:0:0 analyse=0x1:0 me=dia subme=0 psy=1 psy_rd=1.00:0.00 mixed_ref=0 me_range=4 chroma_me=0 trellis=0 8x8dct=0 cqm=0 deadzone=21,11 fast_pskip=1 chroma_qp_offset=0 threads=6 lookahead_threads=1 sliced_threads=0 nr=0 decimate=1 interlaced=0 bluray_compat=0 constrained_intra=0 bframes=3 b_pyramid=2 b_adapt=1 b_bias=0 direct=1 weightb=1 open_gop=0 weightp=1 keyint=250 keyint_min=23 scenecut=40 intra_refresh=0 rc_lookahead=10 rc=crf mbtree=1 crf=23.0 qcomp=0.60 qpmin=0 qpmax=69 qpstep=4 vbv_maxrate=6005 vbv_bufsize=12011 crf_max=0.0 nal_hrd=none filler=0 ip_ratio=1.40 aq=1:1.00
Output #0, hls, to '/config/data/transcodes/c040dda2168a39e6e1c20b9a186b95c2.m3u8':
  Metadata:
    encoder         : Lavf58.45.100
    Stream #0:0: Video: h264 (libx264), yuv420p, 1920x1080 [SAR 1:1 DAR 16:9], q=-1--1, 23.98 fps, 90k tbn, 23.98 tbc (default)
    Metadata:
      encoder         : Lavc58.91.100 libx264
    Side data:
      cpb: bitrate max/min/avg: 6005000/0/0 buffer size: 12011000 vbv_delay: N/A
    Stream #0:1: Audio: aac (LC), 48000 Hz, stereo, fltp, 384 kb/s (default)
    Metadata:
      encoder         : Lavc58.91.100 aac
frame=    6 fps=0.0 q=0.0 size=N/A time=00:00:00.34 bitrate=N/A speed=0.661x    
frame=   17 fps= 17 q=0.0 size=N/A time=00:00:00.81 bitrate=N/A speed=0.795x    
frame=   25 fps= 15 q=28.0 size=N/A time=00:00:01.13 bitrate=N/A speed=0.693x    
frame=   33 fps= 15 q=28.0 size=N/A time=00:00:01.45 bitrate=N/A speed=0.672x    
frame=   40 fps= 15 q=28.0 size=N/A time=00:00:01.74 bitrate=N/A speed=0.658x    
frame=   50 fps= 16 q=28.0 size=N/A time=00:00:02.19 bitrate=N/A speed=0.694x    
frame=   59 fps= 16 q=28.0 size=N/A time=00:00:02.53 bitrate=N/A speed=0.678x    
frame=   68 fps= 16 q=28.0 size=N/A time=00:00:02.92 bitrate=N/A speed=0.684x    
frame=   77 fps= 16 q=25.0 size=N/A time=00:00:03.30 bitrate=N/A speed=0.69x    
frame=   88 fps= 17 q=25.0 size=N/A time=00:00:03.75 bitrate=N/A speed=0.707x    
[hls @ 0x381ec10] Opening '/config/data/transcodes/c040dda2168a39e6e1c20b9a186b95c20.ts' for writing
frame=   96 fps= 16 q=28.0 size=N/A time=00:00:04.11 bitrate=N/A speed=0.706x    
frame=  107 fps= 17 q=28.0 size=N/A time=00:00:04.56 bitrate=N/A speed=0.719x    
frame=  116 fps= 17 q=28.0 size=N/A time=00:00:04.90 bitrate=N/A speed=0.716x    
frame=  124 fps= 17 q=28.0 size=N/A time=00:00:05.26 bitrate=N/A speed=0.715x    
frame=  132 fps= 17 q=28.0 size=N/A time=00:00:05.58 bitrate=N/A speed=0.703x    
frame=  142 fps= 17 q=28.0 size=N/A time=00:00:05.99 bitrate=N/A speed=0.71x    
frame=  154 fps= 17 q=28.0 size=N/A time=00:00:06.50 bitrate=N/A speed=0.721x    
frame=  164 fps= 17 q=28.0 size=N/A time=00:00:06.93 bitrate=N/A speed=0.724x    
[hls @ 0x381ec10] Opening '/config/data/transcodes/c040dda2168a39e6e1c20b9a186b95c21.ts' for writing
frame=  173 fps= 17 q=28.0 size=N/A time=00:00:07.31 bitrate=N/A speed=0.726x    
frame=  184 fps= 17 q=28.0 size=N/A time=00:00:07.76 bitrate=N/A speed=0.732x    
frame=  193 fps= 17 q=28.0 size=N/A time=00:00:08.14 bitrate=N/A speed=0.724x    
frame=  204 fps= 17 q=28.0 size=N/A time=00:00:08.59 bitrate=N/A speed=0.725x    
frame=  215 fps= 17 q=28.0 size=N/A time=00:00:09.06 bitrate=N/A speed=0.733x    
frame=  224 fps= 17 q=28.0 size=N/A time=00:00:09.42 bitrate=N/A speed=0.73x    
frame=  235 fps= 17 q=28.0 size=N/A time=00:00:09.89 bitrate=N/A speed=0.733x    
[hls @ 0x381ec10] Opening '/config/data/transcodes/c040dda2168a39e6e1c20b9a186b95c22.ts' for writing
frame=  245 fps= 17 q=28.0 size=N/A time=00:00:10.32 bitrate=N/A speed=0.734x    
frame=  256 fps= 18 q=28.0 size=N/A time=00:00:10.77 bitrate=N/A speed=0.737x    
frame=  265 fps= 17 q=28.0 size=N/A time=00:00:11.15 bitrate=N/A speed=0.736x    
frame=  274 fps= 17 q=28.0 size=N/A time=00:00:11.54 bitrate=N/A speed=0.737x    
frame=  284 fps= 18 q=28.0 size=N/A time=00:00:11.94 bitrate=N/A speed=0.738x    
frame=  294 fps= 18 q=28.0 size=N/A time=00:00:12.37 bitrate=N/A speed=0.741x    
frame=  304 fps= 18 q=25.0 size=N/A time=00:00:12.77 bitrate=N/A speed=0.743x    
[hls @ 0x381ec10] Opening '/config/data/transcodes/c040dda2168a39e6e1c20b9a186b95c23.ts' for writing
frame=  313 fps= 18 q=28.0 size=N/A time=00:00:13.14 bitrate=N/A speed=0.74x    
frame=  320 fps= 17 q=28.0 size=N/A time=00:00:13.41 bitrate=N/A speed=0.729x    
frame=  330 fps= 17 q=28.0 size=N/A time=00:00:13.84 bitrate=N/A speed=0.732x    
frame=  336 fps= 17 q=28.0 size=N/A time=00:00:14.10 bitrate=N/A speed=0.725x    
frame=  344 fps= 17 q=28.0 size=N/A time=00:00:14.44 bitrate=N/A speed=0.722x    
frame=  353 fps= 17 q=28.0 size=N/A time=00:00:14.76 bitrate=N/A speed=0.72x    
frame=  362 fps= 17 q=28.0 size=N/A time=00:00:15.18 bitrate=N/A speed=0.723x    
frame=  370 fps= 17 q=28.0 size=N/A time=00:00:15.53 bitrate=N/A speed=0.721x    
frame=  376 fps= 17 q=25.0 size=N/A time=00:00:15.76 bitrate=N/A speed=0.714x    
[hls @ 0x381ec10] Opening '/config/data/transcodes/c040dda2168a39e6e1c20b9a186b95c24.ts' for writing
frame=  386 fps= 17 q=28.0 size=N/A time=00:00:16.21 bitrate=N/A speed=0.718x    
frame=  393 fps= 17 q=28.0 size=N/A time=00:00:16.49 bitrate=N/A speed=0.713x    
frame=  402 fps= 17 q=28.0 size=N/A time=00:00:16.85 bitrate=N/A speed=0.713x    
frame=  409 fps= 17 q=28.0 size=N/A time=00:00:17.13 bitrate=N/A speed=0.702x    
frame=  418 fps= 17 q=28.0 size=N/A time=00:00:17.51 bitrate=N/A speed=0.703x    
frame=  426 fps= 17 q=28.0 size=N/A time=00:00:17.87 bitrate=N/A speed=0.703x    
frame=  434 fps= 17 q=28.0 size=N/A time=00:00:18.19 bitrate=N/A speed= 0.7x    
frame=  443 fps= 17 q=28.0 size=N/A time=00:00:18.58 bitrate=N/A speed= 0.7x    
frame=  450 fps= 17 q=28.0 size=N/A time=00:00:18.85 bitrate=N/A speed=0.697x    
[hls @ 0x381ec10] Opening '/config/data/transcodes/c040dda2168a39e6e1c20b9a186b95c25.ts' for writing
frame=  457 fps= 17 q=28.0 size=N/A time=00:00:19.15 bitrate=N/A speed=0.695x    
frame=  463 fps= 16 q=28.0 size=N/A time=00:00:19.41 bitrate=N/A speed=0.691x    
frame=  471 fps= 16 q=28.0 size=N/A time=00:00:19.73 bitrate=N/A speed=0.689x    
frame=  477 fps= 16 q=25.0 size=N/A time=00:00:19.98 bitrate=N/A speed=0.684x    
frame=  486 fps= 16 q=28.0 size=N/A time=00:00:20.37 bitrate=N/A speed=0.685x    
frame=  492 fps= 16 q=28.0 size=N/A time=00:00:20.62 bitrate=N/A speed=0.681x    
frame=  498 fps= 16 q=25.0 size=N/A time=00:00:20.84 bitrate=N/A speed=0.675x    
frame=  507 fps= 16 q=28.0 size=N/A time=00:00:21.22 bitrate=N/A speed=0.676x    
frame=  513 fps= 16 q=28.0 size=N/A time=00:00:21.48 bitrate=N/A speed=0.674x    
frame=  521 fps= 16 q=28.0 size=N/A time=00:00:21.80 bitrate=N/A speed=0.672x    
[hls @ 0x381ec10] Opening '/config/data/transcodes/c040dda2168a39e6e1c20b9a186b95c26.ts' for writing
frame=  529 fps= 16 q=28.0 size=N/A time=00:00:22.16 bitrate=N/A speed=0.67x    
frame=  539 fps= 16 q=28.0 size=N/A time=00:00:22.57 bitrate=N/A speed=0.671x    
frame=  546 fps= 16 q=28.0 size=N/A time=00:00:22.86 bitrate=N/A speed=0.668x    
frame=  555 fps= 16 q=28.0 size=N/A time=00:00:23.25 bitrate=N/A speed=0.668x    
frame=  561 fps= 16 q=28.0 size=N/A time=00:00:23.50 bitrate=N/A speed=0.666x    
frame=  568 fps= 16 q=28.0 size=N/A time=00:00:23.78 bitrate=N/A speed=0.664x    
frame=  578 fps= 16 q=28.0 size=N/A time=00:00:24.21 bitrate=N/A speed=0.665x    
frame=  586 fps= 16 q=28.0 size=N/A time=00:00:24.53 bitrate=N/A speed=0.664x    
frame=  593 fps= 16 q=28.0 size=N/A time=00:00:24.81 bitrate=N/A speed=0.662x    
[hls @ 0x381ec10] Opening '/config/data/transcodes/c040dda2168a39e6e1c20b9a186b95c27.ts' for writing
frame=  602 fps= 16 q=28.0 size=N/A time=00:00:25.19 bitrate=N/A speed=0.663x    
frame=  612 fps= 16 q=28.0 size=N/A time=00:00:25.57 bitrate=N/A speed=0.664x    
frame=  617 fps= 16 q=28.0 size=N/A time=00:00:25.83 bitrate=N/A speed=0.661x    
frame=  625 fps= 16 q=28.0 size=N/A time=00:00:26.15 bitrate=N/A speed=0.661x    
frame=  633 fps= 16 q=28.0 size=N/A time=00:00:26.47 bitrate=N/A speed=0.661x    
frame=  638 fps= 16 q=28.0 size=N/A time=00:00:26.70 bitrate=N/A speed=0.657x    
frame=  646 fps= 16 q=28.0 size=N/A time=00:00:27.05 bitrate=N/A speed=0.658x    
frame=  653 fps= 16 q=25.0 size=N/A time=00:00:27.34 bitrate=N/A speed=0.654x    
frame=  661 fps= 16 q=28.0 size=N/A time=00:00:27.66 bitrate=N/A speed=0.653x    
[hls @ 0x381ec10] Opening '/config/data/transcodes/c040dda2168a39e6e1c20b9a186b95c28.ts' for writing
frame=  670 fps= 16 q=28.0 size=N/A time=00:00:28.01 bitrate=N/A speed=0.653x    
frame=  677 fps= 16 q=28.0 size=N/A time=00:00:28.33 bitrate=N/A speed=0.653x    
frame=  685 fps= 16 q=28.0 size=N/A time=00:00:28.65 bitrate=N/A speed=0.651x    
frame=  692 fps= 16 q=28.0 size=N/A time=00:00:28.94 bitrate=N/A speed=0.65x    
frame=  700 fps= 16 q=28.0 size=N/A time=00:00:29.29 bitrate=N/A speed=0.649x    
frame=  706 fps= 15 q=28.0 size=N/A time=00:00:29.54 bitrate=N/A speed=0.647x    
frame=  713 fps= 15 q=28.0 size=N/A time=00:00:29.84 bitrate=N/A speed=0.644x    
frame=  721 fps= 15 q=28.0 size=N/A time=00:00:30.16 bitrate=N/A speed=0.644x    
frame=  729 fps= 15 q=28.0 size=N/A time=00:00:30.50 bitrate=N/A speed=0.644x    
frame=  736 fps= 15 q=25.0 size=N/A time=00:00:30.80 bitrate=N/A speed=0.643x    
[hls @ 0x381ec10] Opening '/config/data/transcodes/c040dda2168a39e6e1c20b9a186b95c29.ts' for writing
frame=  745 fps= 15 q=28.0 size=N/A time=00:00:31.12 bitrate=N/A speed=0.642x    
frame=  751 fps= 15 q=28.0 size=N/A time=00:00:31.40 bitrate=N/A speed=0.641x    
frame=  760 fps= 15 q=28.0 size=N/A time=00:00:31.78 bitrate=N/A speed=0.642x    
frame=  767 fps= 15 q=28.0 size=N/A time=00:00:32.08 bitrate=N/A speed=0.641x    
frame=  774 fps= 15 q=28.0 size=N/A time=00:00:32.36 bitrate=N/A speed=0.64x    
frame=  781 fps= 15 q=28.0 size=N/A time=00:00:32.66 bitrate=N/A speed=0.64x    
frame=  790 fps= 15 q=28.0 size=N/A time=00:00:33.04 bitrate=N/A speed=0.64x    
frame=  800 fps= 15 q=28.0 size=N/A time=00:00:33.45 bitrate=N/A speed=0.641x    
frame=  810 fps= 15 q=28.0 size=N/A time=00:00:33.87 bitrate=N/A speed=0.643x    
[hls @ 0x381ec10] Opening '/config/data/transcodes/c040dda2168a39e6e1c20b9a186b95c210.ts' for writing
frame=  817 fps= 15 q=28.0 size=N/A time=00:00:34.15 bitrate=N/A speed=0.642x    
frame=  827 fps= 15 q=28.0 size=N/A time=00:00:34.58 bitrate=N/A speed=0.643x    
frame=  837 fps= 15 q=28.0 size=N/A time=00:00:34.98 bitrate=N/A speed=0.645x    
frame=  846 fps= 15 q=28.0 size=N/A time=00:00:35.37 bitrate=N/A speed=0.645x    
frame=  855 fps= 15 q=28.0 size=N/A time=00:00:35.75 bitrate=N/A speed=0.646x    
frame=  867 fps= 16 q=28.0 size=N/A time=00:00:36.24 bitrate=N/A speed=0.648x    
frame=  876 fps= 16 q=28.0 size=N/A time=00:00:36.62 bitrate=N/A speed=0.649x    
[hls @ 0x381ec10] Opening '/config/data/transcodes/c040dda2168a39e6e1c20b9a186b95c211.ts' for writing
frame=  885 fps= 16 q=28.0 size=N/A time=00:00:37.01 bitrate=N/A speed=0.65x    
frame=  897 fps= 16 q=28.0 size=N/A time=00:00:37.52 bitrate=N/A speed=0.653x    
frame=  907 fps= 16 q=28.0 size=N/A time=00:00:37.93 bitrate=N/A speed=0.654x    
frame=  917 fps= 16 q=28.0 size=N/A time=00:00:38.31 bitrate=N/A speed=0.655x    
frame=  928 fps= 16 q=28.0 size=N/A time=00:00:38.80 bitrate=N/A speed=0.656x    
frame=  939 fps= 16 q=28.0 size=N/A time=00:00:39.25 bitrate=N/A speed=0.658x    
frame=  947 fps= 16 q=28.0 size=N/A time=00:00:39.59 bitrate=N/A speed=0.655x    
frame=  955 fps= 16 q=28.0 size=N/A time=00:00:39.91 bitrate=N/A speed=0.654x    
[hls @ 0x381ec10] Opening '/config/data/transcodes/c040dda2168a39e6e1c20b9a186b95c212.ts' for writing
frame=  964 fps= 16 q=28.0 size=N/A time=00:00:40.29 bitrate=N/A speed=0.653x    
frame=  971 fps= 16 q=28.0 size=N/A time=00:00:40.59 bitrate=N/A speed=0.651x    
frame=  981 fps= 16 q=28.0 size=N/A time=00:00:41.00 bitrate=N/A speed=0.652x    
frame=  989 fps= 16 q=28.0 size=N/A time=00:00:41.32 bitrate=N/A speed=0.652x    
frame=  994 fps= 16 q=28.0 size=N/A time=00:00:41.55 bitrate=N/A speed=0.65x    
frame= 1005 fps= 16 q=28.0 size=N/A time=00:00:42.00 bitrate=N/A speed=0.651x    
frame= 1014 fps= 16 q=28.0 size=N/A time=00:00:42.38 bitrate=N/A speed=0.652x    
frame= 1022 fps= 16 q=28.0 size=N/A time=00:00:42.70 bitrate=N/A speed=0.651x    
[hls @ 0x381ec10] Opening '/config/data/transcodes/c040dda2168a39e6e1c20b9a186b95c213.ts' for writing
frame= 1028 fps= 16 q=28.0 size=N/A time=00:00:42.96 bitrate=N/A speed=0.65x    
frame= 1038 fps= 16 q=28.0 size=N/A time=00:00:43.37 bitrate=N/A speed=0.651x    
frame= 1043 fps= 16 q=28.0 size=N/A time=00:00:43.60 bitrate=N/A speed=0.649x    
frame= 1051 fps= 16 q=28.0 size=N/A time=00:00:43.92 bitrate=N/A speed=0.649x    
frame= 1059 fps= 16 q=28.0 size=N/A time=00:00:44.26 bitrate=N/A speed=0.649x    
frame= 1066 fps= 16 q=28.0 size=N/A time=00:00:44.56 bitrate=N/A speed=0.649x    
frame= 1075 fps= 16 q=28.0 size=N/A time=00:00:44.90 bitrate=N/A speed=0.649x    
frame= 1085 fps= 16 q=28.0 size=N/A time=00:00:45.35 bitrate=N/A speed=0.65x    
frame= 1095 fps= 16 q=25.0 size=N/A time=00:00:45.78 bitrate=N/A speed=0.652x    
[hls @ 0x381ec10] Opening '/config/data/transcodes/c040dda2168a39e6e1c20b9a186b95c214.ts' for writing
frame= 1101 fps= 16 q=28.0 size=N/A time=00:00:45.99 bitrate=N/A speed=0.65x    
frame= 1109 fps= 16 q=28.0 size=N/A time=00:00:46.35 bitrate=N/A speed=0.65x    
frame= 1117 fps= 16 q=28.0 size=N/A time=00:00:46.67 bitrate=N/A speed=0.649x    
frame= 1124 fps= 16 q=28.0 size=N/A time=00:00:46.95 bitrate=N/A speed=0.648x    
frame= 1131 fps= 15 q=28.0 size=N/A time=00:00:47.27 bitrate=N/A speed=0.647x    
frame= 1142 fps= 16 q=28.0 size=N/A time=00:00:47.72 bitrate=N/A speed=0.648x    
frame= 1151 fps= 16 q=28.0 size=N/A time=00:00:48.08 bitrate=N/A speed=0.649x    
frame= 1161 fps= 16 q=28.0 size=N/A time=00:00:48.49 bitrate=N/A speed=0.65x    
frame= 1169 fps= 16 q=25.0 size=N/A time=00:00:48.85 bitrate=N/A speed=0.65x    
[hls @ 0x381ec10] Opening '/config/data/transcodes/c040dda2168a39e6e1c20b9a186b95c215.ts' for writing
frame= 1176 fps= 16 q=28.0 size=N/A time=00:00:49.13 bitrate=N/A speed=0.649x    
frame= 1186 fps= 16 q=28.0 size=N/A time=00:00:49.55 bitrate=N/A speed=0.65x    
frame= 1196 fps= 16 q=28.0 size=N/A time=00:00:49.96 bitrate=N/A speed=0.651x    
frame= 1205 fps= 16 q=28.0 size=N/A time=00:00:50.34 bitrate=N/A speed=0.651x    
frame= 1211 fps= 16 q=28.0 size=N/A time=00:00:50.60 bitrate=N/A speed=0.65x    
frame= 1220 fps= 16 q=28.0 size=N/A time=00:00:50.98 bitrate=N/A speed=0.651x    
frame= 1229 fps= 16 q=28.0 size=N/A time=00:00:51.34 bitrate=N/A speed=0.651x    
frame= 1236 fps= 16 q=28.0 size=N/A time=00:00:51.62 bitrate=N/A speed=0.65x    
[hls @ 0x381ec10] Opening '/config/data/transcodes/c040dda2168a39e6e1c20b9a186b95c216.ts' for writing
frame= 1246 fps= 16 q=28.0 size=N/A time=00:00:52.07 bitrate=N/A speed=0.651x    
frame= 1256 fps= 16 q=28.0 size=N/A time=00:00:52.45 bitrate=N/A speed=0.651x    
frame= 1268 fps= 16 q=28.0 size=N/A time=00:00:52.97 bitrate=N/A speed=0.654x    
frame= 1279 fps= 16 q=28.0 size=N/A time=00:00:53.41 bitrate=N/A speed=0.655x    
frame= 1291 fps= 16 q=28.0 size=N/A time=00:00:53.93 bitrate=N/A speed=0.657x    
frame= 1302 fps= 16 q=28.0 size=N/A time=00:00:54.37 bitrate=N/A speed=0.658x    
frame= 1310 fps= 16 q=28.0 size=N/A time=00:00:54.74 bitrate=N/A speed=0.658x    
[hls @ 0x381ec10] Opening '/config/data/transcodes/c040dda2168a39e6e1c20b9a186b95c217.ts' for writing
frame= 1318 fps= 16 q=28.0 size=N/A time=00:00:55.08 bitrate=N/A speed=0.658x    
frame= 1327 fps= 16 q=28.0 size=N/A time=00:00:55.44 bitrate=N/A speed=0.659x    
frame= 1337 fps= 16 q=28.0 size=N/A time=00:00:55.85 bitrate=N/A speed=0.659x    
frame= 1346 fps= 16 q=28.0 size=N/A time=00:00:56.23 bitrate=N/A speed=0.658x    
frame= 1357 fps= 16 q=28.0 size=N/A time=00:00:56.68 bitrate=N/A speed=0.659x    
frame= 1365 fps= 16 q=28.0 size=N/A time=00:00:57.04 bitrate=N/A speed=0.658x    
frame= 1374 fps= 16 q=28.0 size=N/A time=00:00:57.36 bitrate=N/A speed=0.658x    
frame= 1381 fps= 16 q=28.0 size=N/A time=00:00:57.68 bitrate=N/A speed=0.658x    
[hls @ 0x381ec10] Opening '/config/data/transcodes/c040dda2168a39e6e1c20b9a186b95c218.ts' for writing
frame= 1388 fps= 16 q=28.0 size=N/A time=00:00:57.96 bitrate=N/A speed=0.655x    
frame= 1397 fps= 16 q=28.0 size=N/A time=00:00:58.34 bitrate=N/A speed=0.655x    
frame= 1406 fps= 16 q=28.0 size=N/A time=00:00:58.73 bitrate=N/A speed=0.656x    
frame= 1412 fps= 16 q=28.0 size=N/A time=00:00:58.98 bitrate=N/A speed=0.654x    
frame= 1421 fps= 16 q=28.0 size=N/A time=00:00:59.37 bitrate=N/A speed=0.654x    
frame= 1432 fps= 16 q=28.0 size=N/A time=00:00:59.79 bitrate=N/A speed=0.655x    
frame= 1440 fps= 16 q=28.0 size=N/A time=00:01:00.13 bitrate=N/A speed=0.655x    
frame= 1450 fps= 16 q=28.0 size=N/A time=00:01:00.56 bitrate=N/A speed=0.656x    
[hls @ 0x381ec10] Opening '/config/data/transcodes/c040dda2168a39e6e1c20b9a186b95c219.ts' for writing
frame= 1460 fps= 16 q=28.0 size=N/A time=00:01:00.97 bitrate=N/A speed=0.655x    
frame= 1466 fps= 16 q=28.0 size=N/A time=00:01:01.22 bitrate=N/A speed=0.654x    
frame= 1476 fps= 16 q=28.0 size=N/A time=00:01:01.65 bitrate=N/A speed=0.655x    
frame= 1484 fps= 16 q=28.0 size=N/A time=00:01:01.99 bitrate=N/A speed=0.655x    
frame= 1492 fps= 16 q=28.0 size=N/A time=00:01:02.31 bitrate=N/A speed=0.653x    
frame= 1503 fps= 16 q=28.0 size=N/A time=00:01:02.76 bitrate=N/A speed=0.654x    
frame= 1513 fps= 16 q=28.0 size=N/A time=00:01:03.18 bitrate=N/A speed=0.655x    
frame= 1521 fps= 16 q=28.0 size=N/A time=00:01:03.53 bitrate=N/A speed=0.655x    
frame= 1530 fps= 16 q=28.0 size=N/A time=00:01:03.91 bitrate=N/A speed=0.655x    
[hls @ 0x381ec10] Opening '/config/data/transcodes/c040dda2168a39e6e1c20b9a186b95c220.ts' for writing
frame= 1538 fps= 16 q=28.0 size=N/A time=00:01:04.23 bitrate=N/A speed=0.654x    
frame= 1547 fps= 16 q=28.0 size=N/A time=00:01:04.61 bitrate=N/A speed=0.654x    
frame= 1557 fps= 16 q=28.0 size=N/A time=00:01:05.04 bitrate=N/A speed=0.654x    
frame= 1567 fps= 16 q=28.0 size=N/A time=00:01:05.42 bitrate=N/A speed=0.655x    
frame= 1573 fps= 16 q=28.0 size=N/A time=00:01:05.70 bitrate=N/A speed=0.654x    
frame= 1581 fps= 16 q=28.0 size=N/A time=00:01:06.02 bitrate=N/A speed=0.653x    
frame= 1590 fps= 16 q=28.0 size=N/A time=00:01:06.41 bitrate=N/A speed=0.654x    
frame= 1598 fps= 16 q=28.0 size=N/A time=00:01:06.73 bitrate=N/A speed=0.654x    
[hls @ 0x381ec10] Opening '/config/data/transcodes/c040dda2168a39e6e1c20b9a186b95c221.ts' for writing
frame= 1608 fps= 16 q=28.0 size=N/A time=00:01:07.15 bitrate=N/A speed=0.655x    
frame= 1616 fps= 16 q=28.0 size=N/A time=00:01:07.49 bitrate=N/A speed=0.655x    
frame= 1626 fps= 16 q=28.0 size=N/A time=00:01:07.88 bitrate=N/A speed=0.655x    
frame= 1632 fps= 16 q=28.0 size=N/A time=00:01:08.18 bitrate=N/A speed=0.653x    
frame= 1643 fps= 16 q=28.0 size=N/A time=00:01:08.62 bitrate=N/A speed=0.654x    
frame= 1650 fps= 16 q=28.0 size=N/A time=00:01:08.90 bitrate=N/A speed=0.652x    
frame= 1659 fps= 16 q=28.0 size=N/A time=00:01:09.29 bitrate=N/A speed=0.653x    
frame= 1668 fps= 16 q=28.0 size=N/A time=00:01:09.65 bitrate=N/A speed=0.653x    
[hls @ 0x381ec10] Opening '/config/data/transcodes/c040dda2168a39e6e1c20b9a186b95c222.ts' for writing
frame= 1678 fps= 16 q=28.0 size=N/A time=00:01:10.03 bitrate=N/A speed=0.654x    
frame= 1685 fps= 16 q=28.0 size=N/A time=00:01:10.37 bitrate=N/A speed=0.653x    
frame= 1696 fps= 16 q=28.0 size=N/A time=00:01:10.80 bitrate=N/A speed=0.654x    
frame= 1700 fps= 16 q=28.0 size=N/A time=00:01:10.99 bitrate=N/A speed=0.653x    
frame= 1708 fps= 16 q=28.0 size=N/A time=00:01:11.33 bitrate=N/A speed=0.653x    
frame= 1719 fps= 16 q=28.0 size=N/A time=00:01:11.78 bitrate=N/A speed=0.654x    
frame= 1727 fps= 16 q=28.0 size=N/A time=00:01:12.10 bitrate=N/A speed=0.653x    
frame= 1736 fps= 16 q=28.0 size=N/A time=00:01:12.49 bitrate=N/A speed=0.654x    
frame= 1744 fps= 16 q=28.0 size=N/A time=00:01:12.81 bitrate=N/A speed=0.653x    
[hls @ 0x381ec10] Opening '/config/data/transcodes/c040dda2168a39e6e1c20b9a186b95c223.ts' for writing
frame= 1753 fps= 16 q=28.0 size=N/A time=00:01:13.19 bitrate=N/A speed=0.654x    
frame= 1762 fps= 16 q=28.0 size=N/A time=00:01:13.57 bitrate=N/A speed=0.654x    
frame= 1770 fps= 16 q=28.0 size=N/A time=00:01:13.87 bitrate=N/A speed=0.654x    
frame= 1780 fps= 16 q=28.0 size=N/A time=00:01:14.32 bitrate=N/A speed=0.654x    
frame= 1791 fps= 16 q=28.0 size=N/A time=00:01:14.77 bitrate=N/A speed=0.655x    
frame= 1799 fps= 16 q=28.0 size=N/A time=00:01:15.09 bitrate=N/A speed=0.655x    
frame= 1808 fps= 16 q=28.0 size=N/A time=00:01:15.49 bitrate=N/A speed=0.656x    
frame= 1817 fps= 16 q=28.0 size=N/A time=00:01:15.88 bitrate=N/A speed=0.656x    
[hls @ 0x381ec10] Opening '/config/data/transcodes/c040dda2168a39e6e1c20b9a186b95c224.ts' for writing
frame= 1826 fps= 16 q=28.0 size=N/A time=00:01:16.24 bitrate=N/A speed=0.656x    
frame= 1836 fps= 16 q=28.0 size=N/A time=00:01:16.65 bitrate=N/A speed=0.656x    
frame= 1848 fps= 16 q=28.0 size=N/A time=00:01:17.16 bitrate=N/A speed=0.658x    
frame= 1860 fps= 16 q=28.0 size=N/A time=00:01:17.67 bitrate=N/A speed=0.659x    
frame= 1872 fps= 16 q=28.0 size=N/A time=00:01:18.12 bitrate=N/A speed=0.66x    
frame= 1885 fps= 16 q=28.0 size=N/A time=00:01:18.69 bitrate=N/A speed=0.662x    
[hls @ 0x381ec10] Opening '/config/data/transcodes/c040dda2168a39e6e1c20b9a186b95c225.ts' for writing
frame= 1897 fps= 16 q=28.0 size=N/A time=00:01:19.21 bitrate=N/A speed=0.663x    
frame= 1908 fps= 16 q=28.0 size=N/A time=00:01:19.70 bitrate=N/A speed=0.664x    
frame= 1919 fps= 16 q=28.0 size=N/A time=00:01:20.14 bitrate=N/A speed=0.665x    
frame= 1932 fps= 16 q=28.0 size=N/A time=00:01:20.68 bitrate=N/A speed=0.666x    
frame= 1942 fps= 16 q=28.0 size=N/A time=00:01:21.10 bitrate=N/A speed=0.667x    
frame= 1954 fps= 16 q=28.0 size=N/A time=00:01:21.57 bitrate=N/A speed=0.668x    
[hls @ 0x381ec10] Opening '/config/data/transcodes/c040dda2168a39e6e1c20b9a186b95c226.ts' for writing
frame= 1965 fps= 16 q=28.0 size=N/A time=00:01:22.02 bitrate=N/A speed=0.669x    
frame= 1975 fps= 16 q=28.0 size=N/A time=00:01:22.47 bitrate=N/A speed=0.67x    
frame= 1983 fps= 16 q=25.0 size=N/A time=00:01:22.79 bitrate=N/A speed=0.669x    
frame= 1993 fps= 16 q=28.0 size=N/A time=00:01:23.22 bitrate=N/A speed=0.67x    
frame= 2002 fps= 16 q=28.0 size=N/A time=00:01:23.60 bitrate=N/A speed=0.67x    
frame= 2011 fps= 16 q=28.0 size=N/A time=00:01:23.98 bitrate=N/A speed=0.67x    
frame= 2020 fps= 16 q=28.0 size=N/A time=00:01:24.33 bitrate=N/A speed=0.67x    
frame= 2028 fps= 16 q=28.0 size=N/A time=00:01:24.69 bitrate=N/A speed=0.67x    
[hls @ 0x381ec10] Opening '/config/data/transcodes/c040dda2168a39e6e1c20b9a186b95c227.ts' for writing
frame= 2035 fps= 16 q=28.0 size=N/A time=00:01:24.97 bitrate=N/A speed=0.67x    
frame= 2043 fps= 16 q=28.0 size=N/A time=00:01:25.29 bitrate=N/A speed=0.669x    
frame= 2052 fps= 16 q=28.0 size=N/A time=00:01:25.67 bitrate=N/A speed=0.669x    
frame= 2059 fps= 16 q=28.0 size=N/A time=00:01:25.97 bitrate=N/A speed=0.669x    
frame= 2069 fps= 16 q=28.0 size=N/A time=00:01:26.35 bitrate=N/A speed=0.669x    
frame= 2077 fps= 16 q=28.0 size=N/A time=00:01:26.74 bitrate=N/A speed=0.669x    
frame= 2086 fps= 16 q=28.0 size=N/A time=00:01:27.08 bitrate=N/A speed=0.669x    
frame= 2094 fps= 16 q=28.0 size=N/A time=00:01:27.40 bitrate=N/A speed=0.669x    
frame= 2102 fps= 16 q=25.0 size=N/A time=00:01:27.76 bitrate=N/A speed=0.669x    
[hls @ 0x381ec10] Opening '/config/data/transcodes/c040dda2168a39e6e1c20b9a186b95c228.ts' for writing
frame= 2110 fps= 16 q=28.0 size=N/A time=00:01:28.10 bitrate=N/A speed=0.668x    
frame= 2118 fps= 16 q=28.0 size=N/A time=00:01:28.40 bitrate=N/A speed=0.668x    
frame= 2124 fps= 16 q=28.0 size=N/A time=00:01:28.68 bitrate=N/A speed=0.668x    
frame= 2133 fps= 16 q=28.0 size=N/A time=00:01:29.06 bitrate=N/A speed=0.668x    
frame= 2141 fps= 16 q=28.0 size=N/A time=00:01:29.38 bitrate=N/A speed=0.667x    
frame= 2149 fps= 16 q=28.0 size=N/A time=00:01:29.70 bitrate=N/A speed=0.667x    
frame= 2157 fps= 16 q=28.0 size=N/A time=00:01:30.06 bitrate=N/A speed=0.666x    
frame= 2165 fps= 16 q=28.0 size=N/A time=00:01:30.41 bitrate=N/A speed=0.666x    
frame= 2173 fps= 16 q=28.0 size=N/A time=00:01:30.70 bitrate=N/A speed=0.666x    
[hls @ 0x381ec10] Opening '/config/data/transcodes/c040dda2168a39e6e1c20b9a186b95c229.ts' for writing
frame= 2181 fps= 16 q=28.0 size=N/A time=00:01:31.02 bitrate=N/A speed=0.666x    
frame= 2187 fps= 16 q=28.0 size=N/A time=00:01:31.30 bitrate=N/A speed=0.665x    
frame= 2195 fps= 16 q=28.0 size=N/A time=00:01:31.62 bitrate=N/A speed=0.665x    
frame= 2205 fps= 16 q=28.0 size=N/A time=00:01:32.05 bitrate=N/A speed=0.665x    
frame= 2212 fps= 16 q=28.0 size=N/A time=00:01:32.33 bitrate=N/A speed=0.665x    
frame= 2222 fps= 16 q=28.0 size=N/A time=00:01:32.77 bitrate=N/A speed=0.666x    
frame= 2230 fps= 16 q=28.0 size=N/A time=00:01:33.09 bitrate=N/A speed=0.666x    
frame= 2239 fps= 16 q=28.0 size=N/A time=00:01:33.48 bitrate=N/A speed=0.666x    
frame= 2247 fps= 16 q=28.0 size=N/A time=00:01:33.80 bitrate=N/A speed=0.666x    
[hls @ 0x381ec10] Opening '/config/data/transcodes/c040dda2168a39e6e1c20b9a186b95c230.ts' for writing
frame= 2255 fps= 16 q=28.0 size=N/A time=00:01:34.16 bitrate=N/A speed=0.666x    
frame= 2266 fps= 16 q=28.0 size=N/A time=00:01:34.61 bitrate=N/A speed=0.667x    
frame= 2274 fps= 16 q=28.0 size=N/A time=00:01:34.93 bitrate=N/A speed=0.666x    
frame= 2284 fps= 16 q=28.0 size=N/A time=00:01:35.33 bitrate=N/A speed=0.667x    
frame= 2295 fps= 16 q=28.0 size=N/A time=00:01:35.82 bitrate=N/A speed=0.668x    
frame= 2307 fps= 16 q=28.0 size=N/A time=00:01:36.29 bitrate=N/A speed=0.669x    
frame= 2315 fps= 16 q=28.0 size=N/A time=00:01:36.66 bitrate=N/A speed=0.668x    
[hls @ 0x381ec10] Opening '/config/data/transcodes/c040dda2168a39e6e1c20b9a186b95c231.ts' for writing
frame= 2328 fps= 16 q=28.0 size=N/A time=00:01:37.19 bitrate=N/A speed=0.67x    
frame= 2338 fps= 16 q=28.0 size=N/A time=00:01:37.62 bitrate=N/A speed=0.67x    
frame= 2349 fps= 16 q=28.0 size=N/A time=00:01:38.06 bitrate=N/A speed=0.671x    
frame= 2362 fps= 16 q=28.0 size=N/A time=00:01:38.60 bitrate=N/A speed=0.672x    
frame= 2375 fps= 16 q=28.0 size=N/A time=00:01:39.15 bitrate=N/A speed=0.673x    
frame= 2387 fps= 16 q=28.0 size=N/A time=00:01:39.66 bitrate=N/A speed=0.674x    
[hls @ 0x381ec10] Opening '/config/data/transcodes/c040dda2168a39e6e1c20b9a186b95c232.ts' for writing
frame= 2395 fps= 16 q=28.0 size=N/A time=00:01:39.98 bitrate=N/A speed=0.674x    
frame= 2409 fps= 16 q=28.0 size=N/A time=00:01:40.52 bitrate=N/A speed=0.675x    
frame= 2419 fps= 16 q=28.0 size=N/A time=00:01:40.97 bitrate=N/A speed=0.675x    
frame= 2427 fps= 16 q=28.0 size=N/A time=00:01:41.33 bitrate=N/A speed=0.675x    
frame= 2434 fps= 16 q=28.0 size=N/A time=00:01:41.61 bitrate=N/A speed=0.675x    
frame= 2443 fps= 16 q=28.0 size=N/A time=00:01:41.99 bitrate=N/A speed=0.674x    
frame= 2452 fps= 16 q=28.0 size=N/A time=00:01:42.35 bitrate=N/A speed=0.674x    
frame= 2460 fps= 16 q=28.0 size=N/A time=00:01:42.69 bitrate=N/A speed=0.674x    
[hls @ 0x381ec10] Opening '/config/data/transcodes/c040dda2168a39e6e1c20b9a186b95c233.ts' for writing
frame= 2470 fps= 16 q=28.0 size=N/A time=00:01:43.12 bitrate=N/A speed=0.674x    
frame= 2479 fps= 16 q=28.0 size=N/A time=00:01:43.46 bitrate=N/A speed=0.674x    
frame= 2486 fps= 16 q=28.0 size=N/A time=00:01:43.78 bitrate=N/A speed=0.674x    
frame= 2496 fps= 16 q=28.0 size=N/A time=00:01:44.21 bitrate=N/A speed=0.674x    
frame= 2505 fps= 16 q=28.0 size=N/A time=00:01:44.53 bitrate=N/A speed=0.674x    
frame= 2514 fps= 16 q=28.0 size=N/A time=00:01:44.93 bitrate=N/A speed=0.674x    
frame= 2522 fps= 16 q=28.0 size=N/A time=00:01:45.30 bitrate=N/A speed=0.674x    
frame= 2532 fps= 16 q=28.0 size=N/A time=00:01:45.70 bitrate=N/A speed=0.674x    
[hls @ 0x381ec10] Opening '/config/data/transcodes/c040dda2168a39e6e1c20b9a186b95c234.ts' for writing
frame= 2539 fps= 16 q=28.0 size=N/A time=00:01:46.00 bitrate=N/A speed=0.674x    
frame= 2549 fps= 16 q=28.0 size=N/A time=00:01:46.41 bitrate=N/A speed=0.675x    
frame= 2557 fps= 16 q=28.0 size=N/A time=00:01:46.70 bitrate=N/A speed=0.674x    
frame= 2562 fps= 16 q=25.0 size=N/A time=00:01:46.96 bitrate=N/A speed=0.674x    
frame= 2570 fps= 16 q=28.0 size=N/A time=00:01:47.28 bitrate=N/A speed=0.674x    
frame= 2579 fps= 16 q=28.0 size=N/A time=00:01:47.66 bitrate=N/A speed=0.673x    
frame= 2588 fps= 16 q=28.0 size=N/A time=00:01:48.05 bitrate=N/A speed=0.673x    
frame= 2596 fps= 16 q=28.0 size=N/A time=00:01:48.37 bitrate=N/A speed=0.673x    
frame= 2606 fps= 16 q=25.0 size=N/A time=00:01:48.77 bitrate=N/A speed=0.674x    
[hls @ 0x381ec10] Opening '/config/data/transcodes/c040dda2168a39e6e1c20b9a186b95c235.ts' for writing
frame= 2616 fps= 16 q=28.0 size=N/A time=00:01:49.16 bitrate=N/A speed=0.674x    
frame= 2622 fps= 16 q=28.0 size=N/A time=00:01:49.46 bitrate=N/A speed=0.674x    
frame= 2633 fps= 16 q=28.0 size=N/A time=00:01:49.90 bitrate=N/A speed=0.674x    
frame= 2645 fps= 16 q=28.0 size=N/A time=00:01:50.42 bitrate=N/A speed=0.675x    
frame= 2655 fps= 16 q=28.0 size=N/A time=00:01:50.80 bitrate=N/A speed=0.675x    
frame= 2665 fps= 16 q=28.0 size=N/A time=00:01:51.25 bitrate=N/A speed=0.676x    
frame= 2672 fps= 16 q=28.0 size=N/A time=00:01:51.53 bitrate=N/A speed=0.676x    
frame= 2679 fps= 16 q=28.0 size=N/A time=00:01:51.82 bitrate=N/A speed=0.675x    
[hls @ 0x381ec10] Opening '/config/data/transcodes/c040dda2168a39e6e1c20b9a186b95c236.ts' for writing
frame= 2688 fps= 16 q=28.0 size=N/A time=00:01:52.17 bitrate=N/A speed=0.675x    
frame= 2695 fps= 16 q=28.0 size=N/A time=00:01:52.49 bitrate=N/A speed=0.675x    
frame= 2707 fps= 16 q=28.0 size=N/A time=00:01:53.00 bitrate=N/A speed=0.675x    
frame= 2715 fps= 16 q=28.0 size=N/A time=00:01:53.32 bitrate=N/A speed=0.675x    
frame= 2723 fps= 16 q=28.0 size=N/A time=00:01:53.68 bitrate=N/A speed=0.674x    
frame= 2733 fps= 16 q=28.0 size=N/A time=00:01:54.09 bitrate=N/A speed=0.674x    
frame= 2742 fps= 16 q=28.0 size=N/A time=00:01:54.47 bitrate=N/A speed=0.675x    
frame= 2750 fps= 16 q=25.0 size=N/A time=00:01:54.79 bitrate=N/A speed=0.674x    
[hls @ 0x381ec10] Opening '/config/data/transcodes/c040dda2168a39e6e1c20b9a186b95c237.ts' for writing
frame= 2761 fps= 16 q=28.0 size=N/A time=00:01:55.24 bitrate=N/A speed=0.675x    
frame= 2771 fps= 16 q=28.0 size=N/A time=00:01:55.66 bitrate=N/A speed=0.675x    
frame= 2781 fps= 16 q=28.0 size=N/A time=00:01:56.07 bitrate=N/A speed=0.675x    
frame= 2791 fps= 16 q=28.0 size=N/A time=00:01:56.50 bitrate=N/A speed=0.676x    
frame= 2799 fps= 16 q=28.0 size=N/A time=00:01:56.84 bitrate=N/A speed=0.675x    
frame= 2805 fps= 16 q=28.0 size=N/A time=00:01:57.07 bitrate=N/A speed=0.674x    
frame= 2815 fps= 16 q=28.0 size=N/A time=00:01:57.48 bitrate=N/A speed=0.674x    
frame= 2822 fps= 16 q=25.0 size=N/A time=00:01:57.80 bitrate=N/A speed=0.674x    
[hls @ 0x381ec10] Opening '/config/data/transcodes/c040dda2168a39e6e1c20b9a186b95c238.ts' for writing
frame= 2831 fps= 16 q=28.0 size=N/A time=00:01:58.16 bitrate=N/A speed=0.674x    
frame= 2841 fps= 16 q=28.0 size=N/A time=00:01:58.57 bitrate=N/A speed=0.674x    
frame= 2851 fps= 16 q=28.0 size=N/A time=00:01:58.99 bitrate=N/A speed=0.674x    
frame= 2859 fps= 16 q=28.0 size=N/A time=00:01:59.33 bitrate=N/A speed=0.674x    
frame= 2867 fps= 16 q=28.0 size=N/A time=00:01:59.65 bitrate=N/A speed=0.674x    
frame= 2875 fps= 16 q=28.0 size=N/A time=00:02:00.02 bitrate=N/A speed=0.674x    
frame= 2884 fps= 16 q=28.0 size=N/A time=00:02:00.36 bitrate=N/A speed=0.674x    
frame= 2892 fps= 16 q=28.0 size=N/A time=00:02:00.72 bitrate=N/A speed=0.674x    
[hls @ 0x381ec10] Opening '/config/data/transcodes/c040dda2168a39e6e1c20b9a186b95c239.ts' for writing
frame= 2900 fps= 16 q=28.0 size=N/A time=00:02:01.06 bitrate=N/A speed=0.674x    
[hls @ 0x381ec10] Opening '/config/data/transcodes/c040dda2168a39e6e1c20b9a186b95c240.ts' for writing
frame= 2902 fps= 16 q=-1.0 Lsize=N/A time=00:02:01.15 bitrate=N/A speed=0.672x    
video:32294kB audio:5648kB subtitle:0kB other streams:0kB global headers:0kB muxing overhead: unknown
[libx264 @ 0x380b3a0] frame I:89    Avg QP:17.48  size:110755
[libx264 @ 0x380b3a0] frame P:861   Avg QP:21.06  size: 19935
[libx264 @ 0x380b3a0] frame B:1952  Avg QP:24.44  size:  3098
[libx264 @ 0x380b3a0] consecutive B-frames:  7.3%  6.8%  6.3% 79.5%
[libx264 @ 0x380b3a0] mb I  I16..4: 48.9%  0.0% 51.1%
[libx264 @ 0x380b3a0] mb P  I16..4: 14.7%  0.0%  0.0%  P16..4: 34.0%  0.0%  0.0%  0.0%  0.0%    skip:51.3%
[libx264 @ 0x380b3a0] mb B  I16..4:  1.2%  0.0%  0.0%  B16..8: 10.4%  0.0%  0.0%  direct: 3.0%  skip:85.4%  L0:39.1% L1:49.5% BI:11.4%
[libx264 @ 0x380b3a0] coded y,uvDC,uvAC intra: 23.6% 34.0% 7.7% inter: 4.4% 4.8% 0.0%
[libx264 @ 0x380b3a0] i16 v,h,dc,p: 45% 23% 11% 21%
[libx264 @ 0x380b3a0] i4 v,h,dc,ddl,ddr,vr,hd,vl,hu: 22% 23% 18%  4%  8%  5%  6%  4% 10%
[libx264 @ 0x380b3a0] i8c dc,h,v,p: 56% 19% 19%  7%
[libx264 @ 0x380b3a0] Weighted P-Frames: Y:0.3% UV:0.1%
[libx264 @ 0x380b3a0] kb/s:2185.64
[aac @ 0x380fb60] Qavg: 7418.460